<svg xmlns="http://www.w3.org/2000/svg" version="1.1" xmlns:xlink="http://www.w3.org/1999/xlink" xmlns:svgjs="http://svgjs.dev/svgjs" width="2560" height="1440" preserveAspectRatio="none" viewBox="0 0 2560 1440"><g mask="url(&quot;#SvgjsMask1074&quot;)" fill="none"><rect width="2560" height="1440" x="0" y="0" fill="rgba(248, 245, 242, 1)"></rect><path d="M0,937.834C168.027,887.399,253.132,710.183,375.818,584.784C469.15,489.388,545.905,389.713,634.185,289.623C765.443,140.806,993.272,49.663,1021.089,-146.81C1048.641,-341.407,921.474,-542.114,769.608,-666.869C624.669,-785.934,418.562,-765.608,233.162,-794.079C73.298,-818.628,-91.069,-881.796,-241.397,-822.124C-387.948,-763.951,-467.587,-612.185,-555.244,-481.121C-633.261,-364.472,-696.783,-241.864,-721.832,-103.784C-747.596,38.239,-725.008,177.68,-700.562,319.936C-668.098,508.846,-699.218,737.53,-555.465,864.321C-412.499,990.418,-182.582,992.638,0,937.834" fill="#d4c2af"></path><path d="M2560 2424.61C2744.275 2433.628 2897.703 2304.274 3063.741 2223.837 3254.445 2131.45 3507.976 2105.548 3606.192 1917.78 3704.364 1730.095 3633.233 1491.865 3548.049 1297.94 3474.0209999999997 1129.413 3275.031 1063.232 3165.755 915.11 3042.443 747.962 3056.949 473.20799999999997 2871.13 380.3889999999999 2687.718 288.77199999999993 2467.045 397.79999999999995 2275.271 470.30100000000004 2094.844 538.513 1921.9859999999999 632.246 1803.118 784.158 1687.478 931.9449999999999 1652.8600000000001 1120.037 1622.027 1305.1399999999999 1590.5549999999998 1494.075 1532.353 1699.149 1622.56 1868.115 1711.846 2035.355 1923.9569999999999 2079.261 2086.978 2176.036 2243.308 2268.839 2378.416 2415.724 2560 2424.61" fill="#ffffff"></path></g><defs><mask id="SvgjsMask1074"><rect width="2560" height="1440" fill="#ffffff"></rect></mask></defs></svg>