<svg xmlns="http://www.w3.org/2000/svg" version="1.1" xmlns:xlink="http://www.w3.org/1999/xlink" xmlns:svgjs="http://svgjs.dev/svgjs" width="2560" height="1440" preserveAspectRatio="none" viewBox="0 0 2560 1440"><g mask="url(&quot;#SvgjsMask1001&quot;)" fill="none"><rect width="2560" height="1440" x="0" y="0" fill="rgba(248, 245, 242, 1)"></rect><path d="M0,1074.126C199.526,1090.658,369.158,944.647,539.989,840.24C714.68,733.475,942.398,654.012,1005.875,459.368C1069.339,264.765,925.5,69.022,854.053,-122.794C797.159,-275.541,723.693,-412.702,631.088,-546.84C527.174,-697.359,449.132,-884.105,280.147,-954.093C106.836,-1025.873,-90.447,-973.86,-270.169,-920.112C-449.195,-866.572,-622.491,-786.623,-746.685,-647.006C-871.78,-506.376,-911.239,-319.092,-965.193,-138.774C-1028.401,72.472,-1193.366,303.085,-1089.099,497.375C-983.482,694.18,-682.775,650.753,-485.39,755.282C-310.779,847.75,-196.909,1057.811,0,1074.126" fill="#d4c2af"></path><path d="M2560 2575.9809999999998C2769.122 2572.358 2907.078 2365.767 3091.245 2266.633 3295.718 2156.569 3612.108 2175.633 3701.726 1961.409 3792.0550000000003 1745.4850000000001 3552.64 1532.208 3493.186 1305.828 3442.508 1112.864 3478.003 903.683 3378.5209999999997 730.747 3266.843 536.61 3113.64 348.80099999999993 2901.442 277.15599999999995 2686.679 204.64499999999998 2452.861 271.50800000000004 2238.75 345.923 2032.471 417.615 1821.781 513.518 1699.9279999999999 694.743 1583.086 868.517 1630.109 1094.786 1596.28 1301.438 1561.604 1513.269 1414.215 1727.358 1498.58 1924.734 1582.9940000000001 2122.226 1833.7269999999999 2172.927 2016.792 2285.248 2195.46 2394.872 2350.413 2579.612 2560 2575.9809999999998" fill="#ffffff"></path></g><defs><mask id="SvgjsMask1001"><rect width="2560" height="1440" fill="#ffffff"></rect></mask></defs></svg>