<svg xmlns="http://www.w3.org/2000/svg" version="1.1" xmlns:xlink="http://www.w3.org/1999/xlink" xmlns:svgjs="http://svgjs.dev/svgjs" width="2160" height="300" preserveAspectRatio="none" viewBox="0 0 2160 300"><g mask="url(&quot;#SvgjsMask1016&quot;)" fill="none"><rect width="2160" height="300" x="0" y="0" fill="rgba(33, 37, 41, 1)"></rect><path d="M510.99 313.81C684.57 310.83 836.67 91.82 1168.81 91.37 1500.95 90.92 1497.72 128.87 1826.63 128.87 2155.54 128.87 2319.73 91.39 2484.45 91.37" stroke="rgba(144, 9, 56, 0.4)" stroke-width="2"></path><path d="M1087.29 346.66C1204.13 343.8 1195.99 178.79 1523.59 178.77 1851.19 178.75 2176.47 283.58 2396.19 283.77" stroke="rgba(144, 9, 56, 0.4)" stroke-width="2"></path><path d="M828.71 311.24C1015.49 309.48 1188.67 114.36 1549.44 114.34 1910.2 114.32 2087.12 242.83 2270.16 243.34" stroke="rgba(144, 9, 56, 0.4)" stroke-width="2"></path><path d="M1174.37 330.89C1341.43 330.83 1503.91 271.23 1839.91 270.78 2175.92 270.33 2336.12 145.33 2505.46 144.78" stroke="rgba(144, 9, 56, 0.4)" stroke-width="2"></path><path d="M1146.08 341.43C1307.02 338.98 1450.65 143.33 1758.62 143.15 2066.58 142.97 2217.05 212.04 2371.15 212.15" stroke="rgba(144, 9, 56, 0.4)" stroke-width="2"></path></g><defs><mask id="SvgjsMask1016"><rect width="2160" height="300" fill="#ffffff"></rect></mask></defs></svg>